<?xml version="1.0" encoding="utf-8"?>
<!-- Generator: Adobe Illustrator 24.3.0, SVG Export Plug-In . SVG Version: 6.00 Build 0)  -->
<svg version="1.1" id="Livello_1" xmlns="http://www.w3.org/2000/svg" xmlns:xlink="http://www.w3.org/1999/xlink" x="0px" y="0px"
	 viewBox="0 0 51 51" style="enable-background:new 0 0 51 51;" xml:space="preserve">
<style type="text/css">
	.st0{fill:#FFFFFF;}
</style>
<g>
	<rect x="16" y="22.1" class="st0" width="4" height="12.9"/>
	<path class="st0" d="M18,15.7c-1.3,0-2.3,1-2.3,2.3c0,1.3,1,2.3,2.3,2.3c1.3,0,2.3-1,2.3-2.3C20.3,16.8,19.3,15.7,18,15.7z"/>
	<path class="st0" d="M25.5,0C11.4,0,0,11.4,0,25.5S11.4,51,25.5,51S51,39.6,51,25.5S39.6,0,25.5,0z M39,37.1c0,1.1-0.9,1.9-2,1.9
		H14c-1.1,0-2-0.9-2-2V13.9c0-1.1,0.9-1.9,2-1.9h23c1.1,0,2,0.9,2,1.9V37.1z"/>
	<path class="st0" d="M30.2,21.8c-1.9,0-3.3,1.1-3.8,2.1h-0.1v-1.8h-3.8V35h4v-6.4c0-1.7,0.3-3.3,2.4-3.3c2.1,0,2.1,1.9,2.1,3.4V35
		h4v-7.1C35,24.5,34.3,21.8,30.2,21.8z"/>
</g>
</svg>
