<?xml version="1.0" encoding="utf-8"?>
<!-- Generator: Adobe Illustrator 24.3.0, SVG Export Plug-In . SVG Version: 6.00 Build 0)  -->
<svg version="1.1" id="Livello_1" xmlns="http://www.w3.org/2000/svg" xmlns:xlink="http://www.w3.org/1999/xlink" x="0px" y="0px"
	 viewBox="0 0 51 51" style="enable-background:new 0 0 51 51;" xml:space="preserve">
<style type="text/css">
	.st0{fill:#FFFFFF;}
</style>
<path class="st0" d="M25.5,0C11.4,0,0,11.4,0,25.5S11.4,51,25.5,51S51,39.6,51,25.5S39.6,0,25.5,0z M28,41.4V30.2h3.7l0.7-4.6H28v-3
	c0-1.3,0.6-2.5,2.6-2.5h2v-3.9c0,0-1.8-0.3-3.6-0.3c-3.7,0-6,2.2-6,6.2v3.5h-4.1v4.6H23v11.2c-7.6-1.2-13.5-7.8-13.5-15.8
	c0-8.8,7.2-16,16-16s16,7.2,16,16C41.5,33.6,35.6,40.2,28,41.4z"/>
</svg>
