<?xml version="1.0" encoding="utf-8"?>
<!-- Generator: Adobe Illustrator 24.3.0, SVG Export Plug-In . SVG Version: 6.00 Build 0)  -->
<svg version="1.1" id="Livello_1" xmlns="http://www.w3.org/2000/svg" xmlns:xlink="http://www.w3.org/1999/xlink" x="0px" y="0px"
	 viewBox="0 0 51 51" style="enable-background:new 0 0 51 51;" xml:space="preserve">
<style type="text/css">
	.st0{fill:#FFFFFF;}
</style>
<g>
	<path class="st0" d="M36.9,16.9c-0.3-0.7-0.6-1.2-1.1-1.7c-0.5-0.5-1-0.8-1.7-1.1c-0.5-0.2-1.3-0.5-2.8-0.5
		c-1.6-0.1-2.1-0.1-6.1-0.1s-4.5,0-6.1,0.1c-1.5,0.1-2.3,0.3-2.8,0.5c-0.7,0.3-1.2,0.6-1.7,1.1c-0.5,0.5-0.8,1-1.1,1.7
		c-0.2,0.5-0.5,1.3-0.5,2.8C13,21.3,13,21.7,13,25.7c0,4,0,4.5,0.1,6.1c0.1,1.5,0.3,2.3,0.5,2.8c0.3,0.7,0.6,1.2,1.1,1.7
		c0.5,0.5,1,0.8,1.7,1.1c0.5,0.2,1.3,0.5,2.8,0.5c1.6,0.1,2.1,0.1,6.1,0.1c4,0,4.5,0,6.1-0.1c1.5-0.1,2.3-0.3,2.8-0.5
		c0.7-0.3,1.2-0.6,1.7-1.1c0.5-0.5,0.8-1,1.1-1.7c0.2-0.5,0.5-1.3,0.5-2.8c0.1-1.6,0.1-2.1,0.1-6.1c0-4,0-4.5-0.1-6.1
		C37.4,18.2,37.1,17.4,36.9,16.9z M25.3,33.5c-4.3,0-7.7-3.5-7.7-7.7S21,18,25.3,18s7.7,3.5,7.7,7.7S29.5,33.5,25.3,33.5z
		 M33.3,19.5c-1,0-1.8-0.8-1.8-1.8c0-1,0.8-1.8,1.8-1.8c1,0,1.8,0.8,1.8,1.8C35.1,18.7,34.3,19.5,33.3,19.5z"/>
	<circle class="st0" cx="25.3" cy="25.8" r="5"/>
	<path class="st0" d="M25.2,0.2C11.2,0.2-0.3,11.7-0.3,25.7s11.4,25.5,25.5,25.5s25.5-11.4,25.5-25.5S39.3,0.2,25.2,0.2z M40.1,31.9
		c-0.1,1.6-0.3,2.7-0.7,3.6c-0.4,1-0.9,1.8-1.7,2.7c-0.8,0.8-1.7,1.3-2.7,1.7c-0.9,0.4-2,0.6-3.6,0.7c-1.6,0.1-2.1,0.1-6.2,0.1
		c-4.1,0-4.6,0-6.2-0.1c-1.6-0.1-2.7-0.3-3.6-0.7c-1-0.4-1.8-0.9-2.7-1.7c-0.8-0.8-1.3-1.7-1.7-2.7c-0.4-0.9-0.6-2-0.7-3.6
		c-0.1-1.6-0.1-2.1-0.1-6.2c0-4.1,0-4.6,0.1-6.2c0.1-1.6,0.3-2.7,0.7-3.6c0.4-1,0.9-1.8,1.7-2.7c0.8-0.8,1.7-1.3,2.7-1.7
		c0.9-0.4,2-0.6,3.6-0.7c1.6-0.1,2.1-0.1,6.2-0.1c4.1,0,4.6,0,6.2,0.1c1.6,0.1,2.7,0.3,3.6,0.7c1,0.4,1.8,0.9,2.7,1.7
		c0.8,0.8,1.3,1.7,1.7,2.7c0.4,0.9,0.6,2,0.7,3.6c0.1,1.6,0.1,2.1,0.1,6.2C40.2,29.8,40.2,30.3,40.1,31.9z"/>
</g>
</svg>
