<?xml version="1.0" encoding="utf-8"?>
<!-- Generator: Adobe Illustrator 24.3.0, SVG Export Plug-In . SVG Version: 6.00 Build 0)  -->
<svg version="1.1" id="Livello_1" xmlns="http://www.w3.org/2000/svg" xmlns:xlink="http://www.w3.org/1999/xlink" x="0px" y="0px"
	 viewBox="0 0 51 51" style="enable-background:new 0 0 51 51;" xml:space="preserve">
<style type="text/css">
	.st0{fill:#FFFFFF;}
</style>
<g>
	<path class="st0" d="M34.4,27c-0.1-0.1-0.2-0.2-0.3-0.3c-4.6-2.8-11.4-3.6-16.9-2c-0.2,0-0.3,0.1-0.4,0.2c-0.1,0.1-0.2,0.2-0.3,0.4
		c-0.1,0.1-0.1,0.3-0.1,0.4c0,0.2,0,0.3,0,0.5s0.1,0.3,0.2,0.4c0.1,0.1,0.2,0.2,0.4,0.3s0.3,0.1,0.4,0.1c0.2,0,0.3,0,0.5-0.1
		c4.8-1.4,10.9-0.7,14.9,1.8c0.1,0.1,0.3,0.1,0.4,0.2c0.2,0,0.3,0,0.5,0c0.1,0,0.3-0.1,0.4-0.2c0.1-0.1,0.2-0.2,0.3-0.3
		c0.1-0.1,0.1-0.3,0.2-0.4c0-0.2,0-0.3,0-0.5C34.6,27.3,34.5,27.1,34.4,27z"/>
	<path class="st0" d="M16.4,19.6c-0.4,0.1-0.7,0.4-0.8,0.7c-0.2,0.3-0.2,0.7-0.1,1.1c0.1,0.4,0.4,0.7,0.7,0.8
		c0.3,0.2,0.7,0.2,1.1,0.1c4.6-1.4,12.6-1.1,17.4,1.7l0,0c0.2,0.1,0.3,0.2,0.5,0.2c0.2,0,0.4,0,0.5,0c0.2,0,0.3-0.1,0.5-0.2
		c0.1-0.1,0.3-0.2,0.4-0.4c0.1-0.2,0.2-0.3,0.2-0.5c0-0.2,0-0.4,0-0.5c0-0.2-0.1-0.3-0.2-0.5c-0.1-0.1-0.2-0.3-0.4-0.4
		C30.5,18.3,21.7,18,16.4,19.6z"/>
	<path class="st0" d="M32.6,31.3c-0.1-0.1-0.2-0.2-0.3-0.2c-4-2.4-8.9-3-14.6-1.7c-0.2,0.1-0.5,0.2-0.6,0.4C17,30.1,17,30.3,17,30.5
		c0.1,0.2,0.2,0.5,0.4,0.6c0.2,0.1,0.5,0.2,0.7,0.1c5.2-1.2,9.7-0.7,13.2,1.4c0.1,0.1,0.2,0.1,0.3,0.1c0.1,0,0.2,0,0.4,0
		c0.1,0,0.2-0.1,0.3-0.2c0.1-0.1,0.2-0.2,0.2-0.3c0.1-0.1,0.1-0.2,0.1-0.3c0-0.1,0-0.2,0-0.4C32.7,31.6,32.7,31.4,32.6,31.3z"/>
	<path class="st0" d="M25.8,0.2C11.7,0.2,0.2,11.7,0.2,25.8s11.4,25.5,25.5,25.5s25.5-11.4,25.5-25.5S39.8,0.2,25.8,0.2z M38.2,34.1
		c-1.6,2.5-4,4.4-6.7,5.5c-2.7,1.1-5.8,1.4-8.7,0.9c-2.9-0.6-5.6-2-7.7-4.1c-2.1-2.1-3.5-4.8-4.1-7.7c-0.6-2.9-0.3-5.9,0.9-8.7
		c1.1-2.7,3.1-5.1,5.5-6.7s5.4-2.5,8.3-2.5c4,0,7.8,1.6,10.6,4.4c2.8,2.8,4.4,6.6,4.4,10.6C40.8,28.7,39.9,31.6,38.2,34.1z"/>
</g>
</svg>
