<?xml version="1.0" encoding="utf-8"?>
<!-- Generator: Adobe Illustrator 24.3.0, SVG Export Plug-In . SVG Version: 6.00 Build 0)  -->
<svg version="1.1" id="Livello_1" xmlns="http://www.w3.org/2000/svg" xmlns:xlink="http://www.w3.org/1999/xlink" x="0px" y="0px"
	 viewBox="0 0 51 51" style="enable-background:new 0 0 51 51;" xml:space="preserve">
<style type="text/css">
	.st0{fill:#FFFFFF;}
</style>
<g>
	<path class="st0" d="M25.5,0C11.4,0,0,11.4,0,25.5S11.4,51,25.5,51S51,39.6,51,25.5S39.6,0,25.5,0z M42,26.7c0,2.7-0.3,5.3-0.3,5.3
		s-0.3,2.3-1.3,3.3c-1.3,1.3-2.7,1.3-3.3,1.4c-4.6,0.3-11.5,0.3-11.5,0.3s-8.6-0.1-11.2-0.3c-0.7-0.1-2.4-0.1-3.6-1.4
		c-1-1-1.3-3.3-1.3-3.3S9,29.4,9,26.7v-2.5c0-2.7,0.3-5.3,0.3-5.3s0.3-2.3,1.3-3.3c1.3-1.3,2.7-1.3,3.3-1.4
		c4.6-0.3,11.5-0.3,11.5-0.3h0c0,0,6.9,0,11.5,0.3c0.6,0.1,2,0.1,3.3,1.4c1,1,1.3,3.3,1.3,3.3s0.3,2.7,0.3,5.3V26.7z"/>
	<polygon class="st0" points="22.1,29.8 31,25.2 22.1,20.5 	"/>
</g>
</svg>
