<svg width="155" height="73" viewBox="0 0 155 73" fill="none" xmlns="http://www.w3.org/2000/svg">
<path d="M25.2389 50.0969C25.9072 50.0969 26.5755 50.0969 27.2171 49.99C27.8587 49.8831 28.5537 49.8429 29.1686 49.7226C31.4787 49.33 33.7091 48.5625 35.7716 47.4504C38.0241 46.2726 40.0548 44.7123 41.773 42.839C42.3879 42.1573 42.9894 41.5024 43.5508 40.7271C45.0271 38.7902 46.1824 36.6284 46.9725 34.3247C47.4347 33.0884 47.7662 31.8072 47.9616 30.5019C48.1464 29.4494 48.2714 28.3874 48.3359 27.3207C48.376 26.1298 48.3357 24.9375 48.2156 23.7519C48.1037 22.6594 47.9251 21.5747 47.6809 20.5039C47.0611 17.7993 45.961 15.2279 44.4329 12.9119C43.3632 11.2128 42.0531 9.67754 40.5433 8.35395C39.7013 7.63216 38.8458 6.92373 37.9503 6.28214C36.5741 5.31803 35.0891 4.51945 33.526 3.90294C31.3889 3.05542 29.1355 2.53715 26.8429 2.36582C26.0418 2.31238 25.238 2.31238 24.4369 2.36582C23.6358 2.37895 22.8365 2.44592 22.0443 2.56631C20.9349 2.75344 19.8122 2.99404 18.7295 3.2881C17.0081 3.78391 15.3589 4.50289 13.8241 5.42672C12.2494 6.34457 10.7909 7.44853 9.48005 8.71482C8.785 9.38314 8.14338 10.1183 7.52853 10.8534C6.43516 12.1471 5.49759 13.5647 4.73502 15.0772C3.79822 16.8643 3.11013 18.771 2.68994 20.7445C2.4005 22.1468 2.20403 23.5667 2.10182 24.995C2.05528 26.2171 2.09551 27.441 2.22215 28.6574C2.2883 29.5926 2.4223 30.5217 2.62312 31.4375C3.15801 33.8508 4.05956 36.1678 5.29638 38.3078C6.32227 40.128 7.59027 41.8007 9.06569 43.2801C9.83714 44.0334 10.654 44.7386 11.5117 45.392C13.6387 47.0612 16.0597 48.317 18.6493 49.0944C20.7761 49.7481 22.9872 50.0858 25.2121 50.0969H25.2389ZM25.2121 52.3024C22.7459 52.2806 20.2962 51.8979 17.9409 51.1662C15.1249 50.3255 12.491 48.9655 10.175 47.1563C9.15438 46.3491 8.18147 45.4833 7.26119 44.5633C5.77044 43.0248 4.4855 41.2995 3.43845 39.4306C2.54398 37.8949 1.82656 36.2627 1.29987 34.5653C0.898881 33.2286 0.578103 31.892 0.310777 30.5554C0.163676 29.581 0.0699423 28.5994 0.0300547 27.6148C-0.0100182 26.9203 -0.0100182 26.2241 0.0300547 25.5296C0.0300547 24.5539 0.177087 23.5781 0.284018 22.6158C0.478611 20.873 0.877917 19.1592 1.47364 17.5098C2.13685 15.5721 3.03461 13.7227 4.1469 12.0029C4.94576 10.7385 5.83942 9.53655 6.82016 8.40738C8.62882 6.40535 10.745 4.70434 13.089 3.3683C15.099 2.20769 17.2701 1.35185 19.5315 0.828707C20.5384 0.587005 21.5613 0.417264 22.5924 0.320781C23.929 0.21385 25.2657 0.160377 26.6959 0.18711C27.6866 0.258309 28.6726 0.383244 29.6498 0.561365C31.0206 0.774059 32.3649 1.13255 33.6597 1.63069C35.28 2.22043 36.8345 2.97749 38.2978 3.8896C39.5883 4.70374 40.8048 5.62954 41.9334 6.6564C43.4262 7.98532 44.7384 9.50421 45.8364 11.1742C46.5485 12.2325 47.2 13.3303 47.7878 14.4623C48.8249 16.5154 49.5588 18.708 49.9666 20.9717C50.1403 21.9074 50.274 22.8697 50.3542 23.8187C50.4654 24.8619 50.5101 25.911 50.4879 26.9598C50.4879 28.1895 50.2606 29.4192 50.1136 30.6356C49.8782 32.2862 49.4567 33.905 48.8571 35.4608C48.0634 37.6815 46.9513 39.7751 45.5557 41.6761C44.874 42.5717 44.219 43.4271 43.4304 44.2692C41.7427 46.1546 39.7557 47.7487 37.5493 48.9875C35.4728 50.2181 33.2184 51.1198 30.8661 51.6608C29.8506 51.8753 28.8244 52.0359 27.7919 52.1419C26.9632 52.2489 26.1344 52.2756 25.2923 52.3291" fill="white"/>
<path d="M129.763 50.137C130.793 50.0434 131.835 50.0167 132.851 49.8429C134.111 49.6478 135.356 49.371 136.58 49.0142C138.211 48.5317 139.771 47.8351 141.218 46.9425C142.748 46.0535 144.165 44.9856 145.442 43.7613C146.231 42.9727 146.952 42.1172 147.688 41.2618C148.681 40.0698 149.529 38.7641 150.214 37.3722C151.788 34.3323 152.699 30.9929 152.887 27.5747C152.978 25.9139 152.902 24.248 152.66 22.6024C152.458 21.2799 152.155 19.975 151.751 18.6995C151.205 16.9579 150.451 15.2884 149.506 13.7272C148.586 12.1889 147.496 10.7586 146.257 9.46333C145.835 9.02014 145.389 8.60069 144.921 8.20689C144.186 7.59204 143.464 6.96383 142.689 6.41581C141.155 5.31888 139.489 4.42064 137.73 3.74255C135.249 2.81116 132.627 2.30944 129.977 2.25891C129.249 2.25015 128.521 2.29479 127.799 2.39254C126.82 2.4817 125.847 2.6245 124.885 2.82027C122.809 3.28042 120.81 4.03666 118.95 5.0658C117.061 6.09869 115.328 7.39482 113.804 8.91531C112.946 9.79181 112.142 10.7203 111.398 11.6955C110.145 13.3272 109.129 15.127 108.377 17.042C107.836 18.382 107.42 19.7691 107.134 21.1856C106.842 22.5438 106.681 23.9269 106.653 25.3158C106.646 26.5706 106.713 27.8248 106.854 29.0717C106.951 30.0356 107.116 30.9914 107.348 31.9321C107.862 34.0431 108.657 36.0753 109.714 37.9737C110.572 39.5352 111.613 40.9889 112.815 42.3044C113.773 43.3225 114.795 44.2779 115.876 45.1647C117.47 46.4466 119.245 47.4869 121.142 48.2523C123.87 49.3953 126.793 49.999 129.75 50.0301L129.763 50.137ZM129.75 0.0534359C132.637 0.0174918 135.506 0.515988 138.211 1.52374C140.552 2.38272 142.747 3.59531 144.72 5.11928C145.898 6.00845 146.994 7.00154 147.995 8.0866C149.408 9.60977 150.633 11.2971 151.644 13.1123C152.587 14.7733 153.328 16.5414 153.85 18.3787C154.197 19.7153 154.464 21.0519 154.705 22.3886C154.961 23.8979 155.051 25.4309 154.972 26.9598C154.972 28.0559 154.772 29.1519 154.652 30.248C154.439 31.915 154.035 33.552 153.449 35.1267C152.804 36.9555 151.952 38.7046 150.909 40.3395C149.288 42.9095 147.224 45.1721 144.814 47.0227C143.325 48.1865 141.706 49.1733 139.989 49.9633C138.26 50.7795 136.431 51.3638 134.549 51.7009C133.505 51.8879 132.452 52.0217 131.394 52.1018C130.412 52.1909 129.425 52.2133 128.44 52.1687C126.379 52.0532 124.34 51.6805 122.372 51.0593C120.99 50.6279 119.649 50.0779 118.362 49.4152C116.897 48.6754 115.517 47.7791 114.245 46.742C113.55 46.1405 112.815 45.5657 112.173 44.9108C109.194 41.9143 106.975 38.2476 105.704 34.2177C105.26 32.8926 104.946 31.5272 104.768 30.141C104.662 29.1519 104.595 28.1628 104.501 27.1737C104.482 26.8889 104.482 26.6031 104.501 26.3183C104.517 24.9231 104.62 23.5303 104.809 22.1479C105.336 18.5694 106.596 15.1384 108.511 12.0698C109.389 10.6726 110.391 9.35743 111.505 8.14008C112.792 6.74043 114.237 5.49362 115.809 4.42425C117.843 2.98219 120.101 1.88486 122.492 1.17624C123.662 0.82859 124.855 0.560641 126.061 0.374255C127.277 0.17376 128.52 0.120297 129.763 0V0.0935332" fill="white"/>
<path d="M77.5412 50.1369C78.5571 50.0434 79.5729 50.0166 80.562 49.8429C81.7561 49.6559 82.9387 49.4015 84.1041 49.081C85.8402 48.5668 87.5026 47.8299 89.0496 46.8889C90.4285 46.0954 91.7074 45.1396 92.8591 44.0419C93.8081 43.1196 94.6769 42.1172 95.5323 41.1147C96.6035 39.771 97.5016 38.2981 98.2056 36.7305C98.9809 35.193 99.5559 33.5624 99.9164 31.8786C100.189 30.589 100.394 29.2863 100.531 27.9756C100.596 27.0857 100.596 26.1923 100.531 25.3024C100.531 24.5004 100.424 23.6984 100.331 22.9098C100.187 21.5774 99.9006 20.2643 99.4753 18.9935C98.4431 15.6573 96.7013 12.5841 94.3694 9.98458C93.6076 9.15587 92.7521 8.42069 91.91 7.65881C90.5811 6.47591 89.086 5.4942 87.4724 4.74497C86.2296 4.18375 84.958 3.68853 83.663 3.26133C82.1627 2.78832 80.609 2.50541 79.0382 2.41924C78.2595 2.3658 77.4779 2.3658 76.6991 2.41924C75.9105 2.41924 75.1219 2.52615 74.3333 2.60635C73.0467 2.76279 71.7794 3.04942 70.5507 3.46181C69.0787 3.94646 67.6592 4.57786 66.3135 5.34647C64.8335 6.18209 63.4526 7.18194 62.1967 8.32713C61.1255 9.29549 60.1456 10.3604 59.2695 11.5083C57.7654 13.508 56.5754 15.7257 55.7408 18.0846C55.2132 19.5244 54.8412 21.0165 54.6314 22.5355C54.5512 23.1504 54.471 23.7519 54.4309 24.3667C54.3908 24.9816 54.3239 25.7702 54.2972 26.4652C54.2972 26.8261 54.2972 27.2004 54.2972 27.5613C54.2972 28.3098 54.3774 29.0717 54.5111 29.8068C54.7116 30.8895 54.9522 31.9588 55.2329 33.0281C55.8027 35.1117 56.6716 37.1017 57.8125 38.936C58.6206 40.286 59.5657 41.5491 60.6328 42.7053C63.1337 45.4009 66.227 47.4784 69.6685 48.7736C72.1512 49.6909 74.7742 50.1703 77.4209 50.1904L77.5412 50.1369ZM102.536 26.2514C102.536 27.0801 102.536 27.9222 102.536 28.7375C102.262 32.0558 101.354 35.2908 99.863 38.2677C99.0359 39.9525 98.0033 41.5284 96.7887 42.9592C95.9495 43.9726 95.0572 44.9408 94.1155 45.8597C92.7839 47.0863 91.3176 48.1579 89.7447 49.0543C88.1658 49.9759 86.4833 50.7072 84.7323 51.233C83.5293 51.5805 82.2863 51.7944 81.0566 52.0484C79.4732 52.3264 77.8619 52.4116 76.258 52.3023C74.3653 52.2115 72.49 51.8975 70.6709 51.3667C69.2391 50.9548 67.8477 50.4135 66.514 49.7494C65.0192 49.026 63.6149 48.1287 62.3304 47.0761C61.2342 46.1782 60.19 45.2187 59.2027 44.2023C58.3685 43.2749 57.5918 42.2973 56.8769 41.2751C55.976 40.025 55.2141 38.6805 54.6047 37.2652C53.7642 35.47 53.1577 33.5743 52.8002 31.6246C52.5888 30.4659 52.4372 29.297 52.3458 28.1226C52.2501 27.0114 52.2278 25.8952 52.2789 24.7811C52.2789 23.7251 52.5195 22.6692 52.6532 21.6266C52.8834 20.1307 53.264 18.6619 53.7893 17.2425C54.4145 15.4511 55.2443 13.7378 56.2621 12.1365C57.0023 10.8987 57.8715 9.74277 58.8552 8.68805C59.7507 7.76577 60.6596 6.85686 61.6086 6.01478C64.7713 3.31824 68.5725 1.47748 72.6492 0.66826C73.6487 0.486531 74.6569 0.357135 75.6699 0.280626C76.7856 0.185028 77.9063 0.16272 79.0249 0.21381C80.9106 0.333958 82.7763 0.67032 84.5853 1.21628C86.1485 1.69177 87.6616 2.31848 89.1031 3.08756C90.4713 3.8081 91.7613 4.66809 92.9526 5.65387C93.661 6.25535 94.3961 6.84349 95.0511 7.5118C95.7612 8.2266 96.4306 8.98076 97.056 9.77071C98.2587 11.2847 99.2856 12.9304 100.117 14.6761C101.111 16.7129 101.821 18.876 102.229 21.1053C102.403 22.1479 102.51 23.2038 102.616 24.2598C102.697 24.9147 102.697 25.5964 102.723 26.238H102.63" fill="white"/>
<path d="M132.33 69.7054V65.2277C132.33 65.0505 132.4 64.8805 132.526 64.7551C132.651 64.6298 132.821 64.5594 132.998 64.5594C133.175 64.5594 133.345 64.6298 133.471 64.7551C133.596 64.8805 133.666 65.0505 133.666 65.2277V71.5099C133.666 71.9643 133.546 72.1247 133.145 72.245C132.99 72.2755 132.829 72.2586 132.684 72.1966C132.539 72.1347 132.415 72.0304 132.33 71.8975L128.895 67.1525C128.895 67.1525 128.814 67.0856 128.734 67.0054V71.6034C128.753 71.752 128.714 71.9022 128.624 72.022C128.534 72.1419 128.401 72.2219 128.253 72.245C128.022 72.2441 127.797 72.1691 127.611 72.0312C127.518 72.0312 127.478 71.7772 127.478 71.6569C127.478 69.5049 127.478 67.353 127.478 65.201C127.47 65.0617 127.512 64.9242 127.595 64.812C127.678 64.6999 127.797 64.62 127.932 64.5861C128.096 64.5417 128.268 64.5432 128.431 64.5903C128.594 64.6375 128.74 64.7285 128.855 64.8535L132.009 69.3178L132.33 69.7054Z" fill="white"/>
<path d="M66.3939 68.2885C66.404 67.9106 66.3288 67.5352 66.1738 67.1904C66.0187 66.8455 65.7878 66.5401 65.4984 66.2969C65.1416 65.9591 64.6751 65.761 64.1842 65.7389C63.6933 65.7168 63.2108 65.8722 62.8251 66.1766C62.2691 66.6328 61.9024 67.2794 61.7962 67.9907C61.69 68.702 61.8518 69.4274 62.2504 70.0261C62.4107 70.2756 62.6199 70.4899 62.8654 70.6562C63.1109 70.8225 63.3877 70.9371 63.6788 70.9934C63.97 71.0496 64.2695 71.0462 64.5593 70.9833C64.8491 70.9205 65.1231 70.7995 65.3647 70.6276C65.7155 70.3532 65.9921 69.9955 66.1695 69.587C66.3469 69.1785 66.4195 68.7322 66.3806 68.2885H66.3939ZM64.1483 64.4791C64.9708 64.4693 65.7709 64.747 66.4104 65.2644C67.0498 65.7818 67.4884 66.5063 67.6503 67.3128C67.8438 68.0098 67.8545 68.745 67.6812 69.4474C67.508 70.1497 67.1567 70.7956 66.6612 71.3227C66.1626 71.8555 65.4984 72.2041 64.7766 72.3118C64.2207 72.4295 63.6446 72.4108 63.0975 72.2572C62.5504 72.1036 62.0488 71.8196 61.6355 71.4296C60.9766 70.799 60.5603 69.9569 60.4593 69.0504C60.3828 68.4549 60.4282 67.8501 60.5929 67.2727C60.7755 66.4743 61.2302 65.7644 61.8788 65.2644C62.5275 64.7645 63.3298 64.5058 64.1483 64.5326" fill="white"/>
<path d="M49.9264 71.0151C50.2164 71.0241 50.505 70.973 50.7741 70.8648C51.0433 70.7567 51.2872 70.594 51.4903 70.3868C51.9315 69.8883 52.1914 69.2553 52.2278 68.5905C52.2642 67.9258 52.0749 67.2682 51.6907 66.7244C51.5129 66.4559 51.2771 66.2308 51.0007 66.0655C50.7243 65.9003 50.4144 65.7992 50.0937 65.7697C49.773 65.7402 49.4497 65.783 49.1478 65.895C48.8459 66.0071 48.5729 66.1855 48.3491 66.417C48.0255 66.7515 47.7902 67.1611 47.6642 67.609C47.5382 68.057 47.5255 68.5293 47.6274 68.9834C47.6988 69.5433 47.9713 70.0583 48.3943 70.4321C48.8173 70.8059 49.3619 71.0131 49.9264 71.0151ZM53.562 68.2482C53.5998 68.8351 53.508 69.4231 53.2932 69.9705C53.0784 70.518 52.7458 71.0115 52.319 71.416C51.8253 71.8682 51.2156 72.1741 50.558 72.2996C49.9005 72.4251 49.2209 72.3653 48.5954 72.1267C47.9699 71.8882 47.4231 71.4803 47.0161 70.9488C46.6091 70.4173 46.358 69.7831 46.2907 69.117C46.1492 68.4145 46.1986 67.6868 46.4337 67.0098C46.6688 66.3328 47.0809 65.7312 47.6274 65.2675C47.9877 64.9707 48.4045 64.7502 48.8525 64.6192C49.3005 64.4883 49.7704 64.4496 50.2338 64.5056C50.696 64.5301 51.1481 64.6496 51.5621 64.8566C51.976 65.0635 52.3429 65.3536 52.6397 65.7086C53.2456 66.4141 53.5693 67.3186 53.5486 68.2482" fill="white"/>
<path d="M33.5395 68.3953C34.288 68.3953 35.0098 68.3953 35.7182 68.275C35.9757 68.2315 36.21 68.0996 36.3808 67.902C36.5516 67.7044 36.6481 67.4534 36.6538 67.1923C36.6538 66.5373 36.4266 66.0695 35.785 65.9893C35.0374 65.9356 34.287 65.9356 33.5395 65.9893V68.3953ZM36.4533 69.3309C36.9078 69.9725 37.3489 70.574 37.7899 71.1888C37.8999 71.3275 37.9528 71.5029 37.9379 71.6792C37.923 71.8556 37.8414 72.0196 37.7097 72.1378C37.6411 72.193 37.5619 72.2336 37.4772 72.2575C37.3924 72.2813 37.3037 72.2878 37.2163 72.2766C37.129 72.2653 37.0448 72.2366 36.9688 72.1921C36.8928 72.1476 36.8266 72.0882 36.7741 72.0176C36.3865 71.5096 36.0122 70.9883 35.6246 70.4671C35.4375 70.2131 35.2504 69.9324 35.0499 69.6784C35.0277 69.6445 34.9982 69.616 34.9635 69.5952C34.9287 69.5744 34.8897 69.5617 34.8493 69.5581H33.5127C33.5127 70.1997 33.5127 70.8279 33.5127 71.4561C33.5158 71.6388 33.4697 71.8188 33.3791 71.9774C33.3219 72.0924 33.227 72.1844 33.1103 72.2379C32.9935 72.2914 32.8619 72.3032 32.7374 72.2715C32.593 72.2304 32.4641 72.1476 32.3666 72.0335C32.2691 71.9194 32.2074 71.779 32.1895 71.6299V65.4547C32.1895 64.8532 32.4033 64.6393 33.0048 64.6393C33.887 64.6393 34.7691 64.6393 35.678 64.6393C36.0296 64.627 36.3792 64.6974 36.6986 64.845C37.018 64.9925 37.2982 65.2131 37.5167 65.4888C37.7352 65.7646 37.8859 66.0878 37.9566 66.4324C38.0273 66.7771 38.0159 67.1335 37.9236 67.473C37.7097 68.5824 37.5627 68.7428 36.4667 69.3309" fill="white"/>
<path d="M97.0293 65.8155V70.8947C97.5372 70.8947 98.0184 70.8947 98.4995 70.8947C99.0632 70.8668 99.5985 70.6394 100.01 70.2532C100.29 69.9593 100.499 69.6055 100.622 69.2188C100.744 68.832 100.777 68.4224 100.718 68.021C100.7 67.5248 100.516 67.049 100.196 66.6689C99.8768 66.2889 99.4396 66.0262 98.954 65.9225C98.3258 65.8423 97.6174 65.8423 97.0293 65.8155ZM95.6926 68.3284V65.2675C95.6792 65.1749 95.6875 65.0804 95.717 64.9915C95.7465 64.9027 95.7964 64.822 95.8626 64.7558C95.9288 64.6896 96.0095 64.6398 96.0984 64.6103C96.1872 64.5808 96.2817 64.5724 96.3743 64.5858C97.1496 64.5858 97.9248 64.5858 98.7001 64.5858C99.1469 64.5982 99.5867 64.7004 99.9931 64.8864C100.4 65.0724 100.764 65.3384 101.066 65.6685C101.645 66.31 101.985 67.1314 102.028 67.9943C102.124 68.9094 101.902 69.8297 101.4 70.6007C101.151 71.0063 100.814 71.3506 100.414 71.6075C100.013 71.8644 99.56 72.0274 99.0877 72.0843C98.1387 72.1779 97.1896 72.0843 96.2406 72.1645C95.9198 72.1645 95.6926 71.8571 95.6926 71.4561V68.3284Z" fill="white"/>
<path d="M73.4644 70.9483C73.9723 70.9483 74.4535 70.9483 74.9213 70.9483C75.2958 70.9403 75.6624 70.8381 75.9871 70.6513C76.3118 70.4644 76.5842 70.1988 76.7792 69.879C77.002 69.5081 77.1361 69.0907 77.1708 68.6594C77.2056 68.2281 77.1402 67.7947 76.9798 67.3929C76.8728 67.0344 76.6689 66.7124 76.3906 66.4624C76.1123 66.2124 75.7704 66.0441 75.4026 65.976C74.7594 65.8997 74.1121 65.864 73.4644 65.8691V70.9483ZM72.1278 68.3953V65.3345C72.1278 64.8399 72.3417 64.6394 72.8229 64.6394C73.5714 64.6394 74.3332 64.6394 75.0817 64.6394C75.8336 64.648 76.5581 64.9227 77.1268 65.4147C77.5632 65.7728 77.9109 66.2269 78.1428 66.7417C78.3747 67.2564 78.4844 67.8178 78.4634 68.382C78.4849 68.9086 78.3962 69.4338 78.2028 69.9241C78.0095 70.4144 77.7158 70.8588 77.3406 71.229C76.7018 71.8404 75.8587 72.1929 74.9748 72.2181C74.253 72.2181 73.5313 72.2181 72.8095 72.2181C72.7161 72.2292 72.6215 72.2188 72.5328 72.1876C72.4441 72.1564 72.3636 72.1052 72.2978 72.0381C72.232 71.971 72.1824 71.8896 72.1529 71.8003C72.1234 71.7111 72.1149 71.6162 72.1278 71.523V68.3953Z" fill="white"/>
<path d="M124.684 69.1573H123.441C123.362 69.1573 123.284 69.1417 123.211 69.1115C123.138 69.0813 123.072 69.0369 123.016 68.9811C122.96 68.9252 122.916 68.8589 122.885 68.786C122.855 68.713 122.84 68.6348 122.84 68.5558C122.84 68.4768 122.855 68.3986 122.885 68.3256C122.916 68.2527 122.96 68.1863 123.016 68.1305C123.072 68.0746 123.138 68.0303 123.211 68.0001C123.284 67.9699 123.362 67.9543 123.441 67.9543H125.339C125.421 67.9506 125.504 67.9639 125.581 67.9933C125.658 68.0227 125.728 68.0677 125.787 68.1253C125.846 68.183 125.892 68.2521 125.923 68.3285C125.954 68.4048 125.969 68.4867 125.967 68.5691C125.967 69.3177 125.967 70.0528 125.967 70.8013C125.947 71.0486 125.832 71.2784 125.647 71.4429C125.211 71.8053 124.703 72.0695 124.156 72.2171C123.609 72.3648 123.037 72.3925 122.479 72.2984C121.88 72.2148 121.311 71.9853 120.821 71.63C120.151 71.131 119.678 70.4116 119.485 69.5983C119.306 68.9741 119.272 68.3173 119.385 67.678C119.499 67.0387 119.757 66.4337 120.14 65.9093C120.441 65.4779 120.84 65.1244 121.305 64.8781C121.77 64.6317 122.287 64.4995 122.813 64.4924C123.674 64.4231 124.533 64.6391 125.259 65.1073C125.356 65.1581 125.441 65.2287 125.508 65.3146C125.576 65.4005 125.624 65.4998 125.651 65.6058C125.677 65.7118 125.681 65.8222 125.662 65.9298C125.643 66.0374 125.601 66.1397 125.54 66.23C125.498 66.2994 125.442 66.3592 125.376 66.4055C125.309 66.4518 125.234 66.4836 125.154 66.4987C125.075 66.5138 124.993 66.512 124.914 66.4934C124.836 66.4747 124.762 66.4396 124.698 66.3904C124.273 66.0707 123.769 65.872 123.241 65.8157C122.692 65.7894 122.153 65.9614 121.721 66.3C121.289 66.6387 120.993 67.1216 120.888 67.6603C120.752 68.1183 120.733 68.6032 120.834 69.0704C120.934 69.5376 121.15 69.972 121.463 70.3335C121.733 70.6578 122.093 70.8945 122.497 71.0135C122.902 71.1325 123.333 71.1285 123.735 71.0018L124.016 70.9216C124.751 70.6409 124.751 70.6409 124.751 69.8657L124.684 69.1573Z" fill="white"/>
<path d="M104.795 65.8159V67.7541H107.696C108.123 67.7541 108.311 67.9278 108.311 68.3288C108.311 68.7298 108.11 69.0105 107.696 69.0105H104.809V70.9219H108.163C108.254 70.914 108.345 70.9257 108.43 70.9563C108.516 70.9869 108.593 71.0356 108.658 71.0991C108.723 71.1626 108.773 71.2394 108.805 71.3242C108.838 71.4089 108.851 71.4997 108.845 71.5902C108.844 71.6758 108.825 71.7601 108.789 71.8378C108.753 71.9155 108.701 71.9849 108.637 72.0415C108.573 72.0981 108.498 72.1407 108.416 72.1666C108.335 72.1924 108.248 72.201 108.163 72.1917H104.154C104.06 72.2028 103.965 72.1924 103.877 72.1611C103.788 72.1299 103.708 72.0788 103.642 72.0116C103.576 71.9445 103.527 71.8632 103.497 71.7739C103.468 71.6846 103.459 71.5898 103.472 71.4966C103.472 69.4248 103.472 67.3664 103.472 65.308C103.462 65.2136 103.472 65.1181 103.503 65.0284C103.535 64.9387 103.585 64.8571 103.652 64.7893C103.718 64.7216 103.799 64.6694 103.888 64.6366C103.977 64.6038 104.072 64.5911 104.167 64.5996C105.504 64.5996 106.84 64.5996 108.097 64.5996C108.551 64.5996 108.738 64.7734 108.738 65.1877C108.738 65.6021 108.551 65.7892 108.097 65.7892H104.755L104.795 65.8159Z" fill="white"/>
<path d="M81.2437 69.0236V70.9483H84.6521C84.8187 70.9483 84.9785 71.0145 85.0963 71.1323C85.2141 71.2502 85.2803 71.4099 85.2803 71.5766C85.2803 71.7432 85.2141 71.903 85.0963 72.0208C84.9785 72.1386 84.8187 72.2048 84.6521 72.2048H80.6422C80.5536 72.2127 80.4643 72.2014 80.3805 72.1714C80.2967 72.1415 80.2204 72.0938 80.1569 72.0315C80.0933 71.9693 80.0441 71.8939 80.0125 71.8108C79.9809 71.7276 79.9677 71.6386 79.9739 71.5498V65.2276C79.9739 64.8132 80.1744 64.6261 80.5888 64.6261H84.5987C84.679 64.6154 84.7607 64.6233 84.8375 64.6489C84.9144 64.6745 84.9844 64.7172 85.0424 64.7738C85.1003 64.8305 85.1446 64.8996 85.1719 64.9759C85.1993 65.0522 85.2089 65.1336 85.2001 65.2142C85.2141 65.2963 85.2082 65.3806 85.1829 65.46C85.1577 65.5394 85.1138 65.6115 85.0549 65.6704C84.996 65.7293 84.9238 65.7732 84.8444 65.7985C84.765 65.8238 84.6808 65.8297 84.5987 65.8157H81.2169V67.7404H84.104C84.5451 67.7404 84.7323 67.9142 84.7323 68.3553C84.7403 68.4404 84.7296 68.5262 84.701 68.6067C84.6725 68.6873 84.6267 68.7607 84.5669 68.8218C84.5071 68.8828 84.4348 68.9301 84.3548 68.9604C84.2749 68.9906 84.1893 69.0031 84.104 68.9969H81.2169L81.2437 69.0236Z" fill="white"/>
<path d="M112.2 64.479C113.05 64.4468 113.888 64.6856 114.593 65.1607C114.743 65.2709 114.848 65.4334 114.885 65.6164C114.922 65.7994 114.889 65.9896 114.793 66.1498C114.741 66.2211 114.674 66.2808 114.598 66.3252C114.521 66.3696 114.436 66.3977 114.349 66.4077C114.261 66.4178 114.172 66.4096 114.087 66.3836C114.003 66.3576 113.924 66.3144 113.857 66.2567C113.382 65.8983 112.795 65.7185 112.2 65.7488C112.007 65.7544 111.821 65.8154 111.662 65.9244C111.503 66.0335 111.379 66.186 111.304 66.3637C111.117 66.8582 111.478 67.2859 111.973 67.4731C112.467 67.6602 112.748 67.6869 113.122 67.8206C113.535 67.9668 113.937 68.141 114.325 68.3419C114.645 68.5672 114.892 68.8804 115.036 69.2435C115.181 69.6065 115.217 70.0037 115.141 70.3869C115.073 70.9058 114.821 71.383 114.431 71.7315C114.041 72.08 113.538 72.2764 113.015 72.2849C112.466 72.3382 111.911 72.2817 111.383 72.1188C110.855 71.9559 110.365 71.6898 109.941 71.3359C109.839 71.2097 109.776 71.0557 109.762 70.8937C109.748 70.7318 109.782 70.5693 109.861 70.427C109.918 70.3589 109.987 70.3026 110.066 70.2616C110.144 70.2206 110.23 70.1957 110.319 70.1882C110.407 70.1808 110.496 70.191 110.58 70.2182C110.665 70.2454 110.743 70.2892 110.81 70.3468C111.336 70.8245 112.024 71.0827 112.735 71.0686C113.003 71.0418 113.262 70.9599 113.497 70.828C113.647 70.7369 113.762 70.5973 113.823 70.4321C113.884 70.267 113.886 70.086 113.831 69.9191C113.764 69.5449 113.456 69.3978 113.136 69.2775L111.345 68.6894C111.06 68.5941 110.8 68.4381 110.582 68.2323C110.363 68.0265 110.192 67.7758 110.08 67.4974C109.969 67.2191 109.918 66.9198 109.934 66.6202C109.949 66.3206 110.029 66.0278 110.168 65.7622C110.341 65.3668 110.626 65.0301 110.986 64.7929C111.347 64.5557 111.768 64.428 112.2 64.4255" fill="white"/>
<path d="M39.033 68.4888C39.015 67.9305 39.1139 67.3745 39.3234 66.8566C39.5328 66.3388 39.8482 65.8703 40.2492 65.4814C40.8486 64.9008 41.6471 64.5709 42.4815 64.5591C43.3965 64.4985 44.3014 64.7795 45.021 65.3478C45.1637 65.4731 45.2599 65.6429 45.2938 65.8298C45.3278 66.0166 45.2976 66.2095 45.2082 66.377C45.1539 66.4506 45.0845 66.5117 45.0046 66.5563C44.9248 66.6008 44.8363 66.6278 44.7452 66.6354C44.6541 66.643 44.5624 66.6311 44.4762 66.6003C44.3901 66.5696 44.3116 66.5208 44.2458 66.4572C43.846 66.1125 43.353 65.8939 42.829 65.829C42.3378 65.8116 41.854 65.953 41.4495 66.2323C41.045 66.5116 40.7412 66.9139 40.5834 67.3795C40.3756 67.8852 40.3144 68.4391 40.4065 68.978C40.4987 69.517 40.7407 70.0191 41.1047 70.427C41.4066 70.7591 41.8058 70.987 42.2452 71.0783C42.6846 71.1695 43.1416 71.1193 43.5508 70.9349C43.8347 70.7881 44.1033 70.6135 44.3527 70.4136C44.4087 70.357 44.4753 70.3121 44.5487 70.2814C44.6221 70.2508 44.7009 70.235 44.7804 70.235C44.86 70.235 44.9388 70.2508 45.0122 70.2814C45.0856 70.3121 45.1522 70.357 45.2082 70.4136C45.3239 70.5472 45.3876 70.718 45.3876 70.8948C45.3876 71.0715 45.3239 71.2424 45.2082 71.376C44.6276 71.9847 43.8416 72.3563 43.0027 72.4185C42.5213 72.4654 42.0355 72.4125 41.5755 72.263C41.1155 72.1135 40.6913 71.8707 40.3294 71.5497C39.7052 70.9917 39.2903 70.2372 39.1533 69.4111C39.1533 69.1037 39.0864 68.7963 39.0597 68.4888" fill="white"/>
<path d="M25.1051 64.4792C25.9234 64.4342 26.729 64.6964 27.364 65.2143C27.5206 65.3505 27.6258 65.5361 27.6623 65.7404C27.6988 65.9446 27.6642 66.1552 27.5645 66.3371C27.4271 66.4718 27.2423 66.5473 27.0499 66.5473C26.8574 66.5473 26.6728 66.4718 26.5353 66.3371C26.2585 66.0829 25.9205 65.9045 25.5543 65.8195C25.1881 65.7345 24.8061 65.7457 24.4455 65.852C24.085 65.9583 23.758 66.1561 23.4965 66.4261C23.235 66.6962 23.0478 67.0293 22.9531 67.3931C22.7433 67.9252 22.6987 68.5083 22.8251 69.0662C22.9515 69.6241 23.2429 70.1309 23.6616 70.5208C24.0103 70.8043 24.4357 70.9774 24.8833 71.0179C25.331 71.0584 25.7805 70.9644 26.1744 70.748C26.3616 70.6277 26.5353 70.494 26.7091 70.3604C26.7642 70.3 26.8312 70.2518 26.906 70.2188C26.9808 70.1858 27.0617 70.1687 27.1434 70.1687C27.2252 70.1687 27.3061 70.1858 27.3808 70.2188C27.4556 70.2518 27.5228 70.3 27.5779 70.3604C27.689 70.4909 27.75 70.6568 27.75 70.8282C27.75 70.9996 27.689 71.1655 27.5779 71.296C27.1376 71.7959 26.5463 72.1384 25.8937 72.2717C25.247 72.412 24.5753 72.3844 23.9423 72.1916C23.4806 72.0408 23.0554 71.7953 22.694 71.4708C22.3326 71.1462 22.0431 70.7498 21.8438 70.3069C21.5503 69.7125 21.3976 69.0585 21.3976 68.3955C21.3976 67.7326 21.5503 67.0786 21.8438 66.4842C22.1302 65.8712 22.5912 65.3565 23.169 65.0046C23.7469 64.6526 24.4157 64.4792 25.0918 64.5059" fill="white"/>
<path d="M56.2755 70.9484H59.2962C59.3863 70.9367 59.4779 70.9448 59.5646 70.972C59.6513 70.9991 59.7311 71.0448 59.7985 71.1058C59.8658 71.1668 59.9191 71.2417 59.9547 71.3253C59.9903 71.4088 60.0074 71.4992 60.0047 71.59C60.0047 71.9776 59.7374 72.2182 59.2829 72.2182H55.7275C55.6321 72.2339 55.5343 72.2269 55.4422 72.1978C55.35 72.1686 55.2659 72.1181 55.1969 72.0504C55.1279 71.9827 55.0758 71.8997 55.0449 71.8081C55.014 71.7164 55.0052 71.6188 55.0191 71.5231V65.3078C55.0191 64.7999 55.2062 64.5593 55.6339 64.5727C56.0616 64.586 56.2755 64.8266 56.2755 65.3346V70.9484Z" fill="white"/>
<path d="M87.8867 70.9482H90.961C91.1382 70.9482 91.3082 71.0186 91.4336 71.1439C91.5589 71.2693 91.6293 71.4392 91.6293 71.6165C91.6293 71.7937 91.5589 71.9637 91.4336 72.0891C91.3082 72.2144 91.1382 72.2848 90.961 72.2848H87.312C87.2181 72.2955 87.1231 72.2848 87.0339 72.2536C86.9447 72.2225 86.8638 72.1716 86.797 72.1048C86.7302 72.038 86.6792 71.957 86.6481 71.8678C86.6169 71.7787 86.6063 71.6836 86.6169 71.5898V65.2675C86.6093 65.1865 86.619 65.1048 86.6453 65.0278C86.6716 64.9509 86.7141 64.8804 86.7696 64.821C86.8252 64.7616 86.8927 64.7147 86.9678 64.6834C87.0429 64.6521 87.1237 64.637 87.205 64.6393C87.2928 64.6273 87.3821 64.6349 87.4666 64.6615C87.5511 64.6881 87.6286 64.733 87.6937 64.793C87.7588 64.853 87.8099 64.9266 87.8433 65.0087C87.8766 65.0907 87.8915 65.1791 87.8867 65.2675V71.015V70.9482Z" fill="white"/>
<path d="M117.894 68.489V71.483C117.894 72.0444 117.68 72.3251 117.253 72.3385C116.825 72.3518 116.651 72.1647 116.557 71.5231V65.5216C116.544 65.4017 116.544 65.2807 116.557 65.1608C116.678 64.7063 116.878 64.5726 117.319 64.6261C117.484 64.6493 117.633 64.7369 117.733 64.8697C117.833 65.0025 117.877 65.1697 117.854 65.3345V68.489H117.894Z" fill="white"/>
<path d="M30.3982 68.4085V71.603C30.4074 71.687 30.3992 71.772 30.3742 71.8527C30.3491 71.9334 30.3077 72.008 30.2526 72.072C30.1974 72.1359 30.1296 72.1878 30.0535 72.2244C29.9774 72.2611 29.8945 72.2816 29.8101 72.2847C29.7194 72.2848 29.6296 72.2667 29.5461 72.2316C29.4625 72.1965 29.3867 72.1451 29.3233 72.0804C29.2598 72.0157 29.2099 71.9389 29.1764 71.8547C29.143 71.7704 29.1267 71.6803 29.1284 71.5897V65.2139C29.122 65.1257 29.135 65.0371 29.1667 64.9545C29.1984 64.8719 29.2479 64.7973 29.3118 64.736C29.3756 64.6748 29.4521 64.6283 29.5359 64.6C29.6198 64.5718 29.7089 64.5623 29.7968 64.5724C29.881 64.5654 29.9658 64.5776 30.0447 64.608C30.1236 64.6384 30.1946 64.6862 30.2524 64.7479C30.3102 64.8096 30.3534 64.8836 30.3786 64.9643C30.4038 65.045 30.4105 65.1303 30.3982 65.2139V68.4085Z" fill="white"/>
<path d="M19.879 26.2514C19.8686 24.8571 20.2684 23.4905 21.0285 22.3217C21.4456 21.6474 21.9984 21.0674 22.652 20.6186C23.3056 20.1699 24.0455 19.8622 24.8245 19.7152C26.1784 19.4172 27.5935 19.5918 28.8344 20.2098C29.3895 20.4845 29.8882 20.8608 30.3047 21.3192C30.4051 21.4527 30.4738 21.6074 30.5053 21.7715C30.5368 21.9355 30.5304 22.1046 30.4865 22.2659C30.4427 22.4271 30.3626 22.5761 30.2523 22.7016C30.142 22.8271 30.0045 22.9257 29.8503 22.99C29.6463 23.0737 29.4222 23.0956 29.2059 23.0528C28.9896 23.01 28.7906 22.9045 28.6339 22.7494C27.913 22.0679 26.9524 21.6981 25.9606 21.7202C25.152 21.7431 24.3787 22.0562 23.782 22.6024C22.91 23.3754 22.377 24.4605 22.2983 25.6231C22.1907 26.3495 22.2557 27.091 22.488 27.7877C22.7202 28.4843 23.113 29.1164 23.6349 29.633C23.9861 29.9748 24.4064 30.2376 24.8674 30.4036C25.3285 30.5696 25.8197 30.635 26.3082 30.5954C27.3121 30.5505 28.2641 30.1364 28.9814 29.4325C29.1328 29.2654 29.3401 29.1596 29.5643 29.1349C29.7884 29.1103 30.0138 29.1686 30.1978 29.2989C30.4095 29.4404 30.5653 29.6512 30.6385 29.8951C30.7117 30.1391 30.6976 30.4008 30.5988 30.6355C30.3491 31.0893 29.973 31.4608 29.5161 31.7048C28.4726 32.4065 27.2369 32.7667 25.9798 32.7355C24.7227 32.7044 23.5063 32.2835 22.4988 31.5311C21.3628 30.6645 20.5792 29.4156 20.2933 28.0157C20.1597 27.4142 20.1063 26.7994 20.0127 26.1979" fill="white"/>
<path d="M126.569 21.8539V30.4351C127.531 30.4351 128.467 30.4351 129.403 30.4351C129.945 30.3971 130.47 30.2306 130.935 29.9494C131.4 29.6681 131.791 29.2803 132.076 28.8178C132.459 28.2316 132.705 27.5673 132.798 26.8734C132.89 26.1796 132.826 25.4738 132.611 24.8079C132.477 24.1149 132.136 23.479 131.632 22.9847C131.128 22.4905 130.486 22.1613 129.79 22.0411C128.699 21.9086 127.601 21.8372 126.502 21.8272L126.569 21.8539ZM124.417 26.198C124.417 24.4604 124.417 22.7361 124.417 21.0119C124.394 20.8467 124.408 20.6783 124.46 20.5197C124.512 20.361 124.599 20.2162 124.715 20.0963C124.831 19.9764 124.973 19.8846 125.129 19.8278C125.286 19.7711 125.454 19.7509 125.62 19.7688C126.663 19.7688 127.705 19.7688 128.748 19.7688C130.06 19.7548 131.345 20.1368 132.437 20.8648C133.105 21.3286 133.672 21.923 134.104 22.6123C134.536 23.3015 134.824 24.0712 134.95 24.8747C135.174 26.1386 135.059 27.4394 134.616 28.644C134.154 29.9121 133.265 30.98 132.103 31.6648C131.129 32.241 130.013 32.5327 128.881 32.5069H125.513C125.377 32.5166 125.24 32.4972 125.111 32.4497C124.983 32.4023 124.866 32.3281 124.769 32.2319C124.671 32.1358 124.595 32.02 124.546 31.8922C124.497 31.7645 124.476 31.6277 124.484 31.4911V26.1445" fill="white"/>
<path d="M74.3334 30.4355C75.2824 30.4355 76.2181 30.4355 77.127 30.4355C77.7566 30.4007 78.365 30.1959 78.8875 29.8429C79.41 29.4898 79.8271 29.0017 80.0943 28.4306C80.6379 27.405 80.7808 26.214 80.4953 25.089C80.3728 24.424 80.0755 23.8035 79.6338 23.2915C79.1922 22.7794 78.6223 22.3941 77.9825 22.1751C76.7845 21.9167 75.5556 21.8311 74.3334 21.9212V30.4355ZM72.1815 26.2251C72.1815 24.5009 72.1815 22.79 72.1815 21.0657C72.1605 20.8963 72.178 20.7243 72.2326 20.5625C72.2873 20.4008 72.3777 20.2534 72.4971 20.1314C72.6165 20.0094 72.762 19.9158 72.9225 19.8578C73.0831 19.7997 73.2547 19.7786 73.4245 19.7959C74.427 19.7959 75.4428 19.7959 76.4453 19.7959C77.4674 19.7827 78.48 19.9926 79.4127 20.4108C80.4444 20.9096 81.3118 21.6935 81.9122 22.6697C82.664 23.9322 82.9787 25.4073 82.8077 26.8667C82.7575 27.9524 82.4107 29.0036 81.8051 29.9061C81.1995 30.8086 80.3582 31.528 79.3725 31.986C78.6185 32.3671 77.7848 32.5641 76.9399 32.5607H73.2775C73.1327 32.5683 72.988 32.5456 72.8525 32.494C72.717 32.4424 72.5937 32.3632 72.4906 32.2613C72.3874 32.1594 72.3066 32.0372 72.2534 31.9023C72.2002 31.7674 72.1757 31.6229 72.1815 31.4781V26.2251Z" fill="white"/>
</svg>
